<svg width="82" height="82" viewBox="0 0 82 82" fill="none" xmlns="http://www.w3.org/2000/svg">
<mask id="mask0_5_133" style="mask-type:luminance" maskUnits="userSpaceOnUse" x="0" y="0" width="82" height="82">
<path d="M0 0H82V82H0V0Z" fill="white"/>
</mask>
<g mask="url(#mask0_5_133)">
<path d="M80.4549 37.3488L44.6518 1.5484C44.1614 1.05763 43.579 0.668318 42.938 0.4027C42.2971 0.137081 41.61 0.000366211 40.9162 0.000366211C40.2224 0.000366211 39.5354 0.137081 38.8944 0.4027C38.2534 0.668318 37.6711 1.05763 37.1806 1.5484L29.7487 8.98388L39.1778 18.413C40.2864 18.0365 41.4782 17.9777 42.6184 18.2433C43.7586 18.5089 44.8018 19.0882 45.6299 19.9158C46.4626 20.7494 47.0439 21.8005 47.3073 22.9489C47.5707 24.0973 47.5055 25.2967 47.1193 26.4098L56.2102 35.498C57.3236 35.1113 58.5234 35.0461 59.6722 35.31C60.8209 35.5739 61.8721 36.1562 62.7051 36.9901C63.2886 37.5735 63.7514 38.2661 64.0672 39.0284C64.383 39.7907 64.5456 40.6078 64.5456 41.4329C64.5456 42.258 64.383 43.0751 64.0672 43.8374C63.7514 44.5997 63.2886 45.2923 62.7051 45.8757C61.5254 47.0542 59.9261 47.7161 58.2587 47.7161C56.5912 47.7161 54.992 47.0542 53.8123 45.8757C52.9359 44.9979 52.3389 43.8805 52.0962 42.6641C51.8536 41.4477 51.9762 40.1868 52.4487 39.0399L43.9709 30.5648V52.8721C44.8657 53.3142 45.6424 53.963 46.2365 54.765C46.8306 55.5669 47.2251 56.4988 47.3874 57.4836C47.5496 58.4684 47.4749 59.4776 47.1694 60.4278C46.864 61.3779 46.3365 62.2416 45.6308 62.9473C45.0474 63.5309 44.3547 63.9937 43.5924 64.3095C42.8301 64.6253 42.0131 64.7879 41.1879 64.7879C40.3628 64.7879 39.5458 64.6253 38.7835 64.3095C38.0212 63.9937 37.3285 63.5309 36.7451 62.9473C36.1615 62.3639 35.6985 61.6712 35.3826 60.9089C35.0667 60.1465 34.9042 59.3293 34.9042 58.5041C34.9042 57.6788 35.0667 56.8617 35.3826 56.0993C35.6985 55.3369 36.1615 54.6442 36.7451 54.0608C37.3331 53.4717 38.0319 53.0049 38.8012 52.6874V30.1748C38.035 29.8592 37.3387 29.3954 36.7523 28.8099C36.1659 28.2244 35.701 27.5288 35.3842 26.7631C35.0675 25.9973 34.9051 25.1766 34.9065 24.3479C34.9079 23.5193 35.0729 22.6991 35.3923 21.9344L26.0952 12.6356L1.54351 37.1811C0.554155 38.1724 -0.00149536 39.5157 -0.00149536 40.9162C-0.00149536 42.3167 0.554155 43.6601 1.54351 44.6513L37.3484 80.4562C38.3397 81.4453 39.6828 82.0008 41.0831 82.0008C42.4834 82.0008 43.8265 81.4453 44.8178 80.4562L80.4549 44.8191C81.4443 43.8278 81.9999 42.4845 81.9999 41.084C81.9999 39.6834 81.4443 38.3401 80.4549 37.3488Z" fill="white"/>
</g>
</svg>
