<svg width="96" height="96" viewBox="0 0 96 96" fill="none" xmlns="http://www.w3.org/2000/svg">
<g clip-path="url(#clip0_6_331)">
<path fill-rule="evenodd" clip-rule="evenodd" d="M19.6875 0H76.3125C81.5295 0.0144317 86.5287 2.09328 90.2177 5.78228C93.9067 9.47128 95.9856 14.4705 96 19.6875V76.3125C95.9856 81.5295 93.9067 86.5287 90.2177 90.2177C86.5287 93.9067 81.5295 95.9856 76.3125 96H19.6875C14.4705 95.9856 9.47128 93.9067 5.78228 90.2177C2.09328 86.5287 0.0144317 81.5295 0 76.3125L0 19.6875C0.0144317 14.4705 2.09328 9.47128 5.78228 5.78228C9.47128 2.09328 14.4705 0.0144317 19.6875 0ZM22.8906 29.3672L48.4375 50.2031L72.9141 29.3672H22.8906ZM21.2422 64.4375L39.4453 46.1797L21.2422 31.3359V64.4375ZM41.4531 47.8203L22.6563 66.6328H73.1641L55.1953 47.8203L49.2813 52.8594C49.0485 53.0525 48.7556 53.1582 48.4531 53.1582C48.1507 53.1582 47.8578 53.0525 47.625 52.8594L41.4219 47.7969L41.4531 47.8203ZM57.1875 46.1484L74.7578 64.5781V31.1719L57.1875 46.1484Z" fill="white"/>
</g>
<defs>
<clipPath id="clip0_6_331">
<rect width="96" height="96" fill="white"/>
</clipPath>
</defs>
</svg>
