<svg width="102" height="99" viewBox="0 0 102 99" fill="none" xmlns="http://www.w3.org/2000/svg">
<path fill-rule="evenodd" clip-rule="evenodd" d="M50.9971 0.0171275C22.8369 0.0171275 0 22.7378 0 50.7631C0 73.1861 14.6109 92.2017 34.8747 98.9151C37.4253 99.3851 38.3628 97.8118 38.3628 96.4706C38.3628 95.2606 38.3119 91.2634 38.2912 87.0264C24.102 90.0965 21.1109 81.0362 21.1109 81.0362C18.7917 75.1696 15.4486 73.6094 15.4486 73.6094C10.8217 70.4568 15.8006 70.5261 15.8006 70.5261C20.9206 70.8822 23.6162 75.7522 23.6162 75.7522C28.1679 83.5106 35.5505 81.2647 38.4587 79.9703C38.918 76.6906 40.2357 74.4504 41.6963 73.1823C30.3682 71.903 18.4604 67.5499 18.4604 48.1033C18.4604 42.5644 20.4557 38.0353 23.7141 34.4838C23.1834 33.2027 21.4365 28.0442 24.2054 21.0555C24.2054 21.0555 28.4877 19.6901 38.2348 26.2572C42.3007 25.1352 46.662 24.5695 50.9935 24.5508C55.3284 24.5695 59.6974 25.1333 63.769 26.2572C73.5028 19.6939 77.7813 21.0555 77.7813 21.0555C80.5541 28.0461 78.8149 33.2082 78.284 34.4839C81.5537 38.0353 83.5321 42.5644 83.5321 48.1033C83.5321 67.5948 71.5979 71.8803 60.2452 73.1373C62.0749 74.7106 63.7088 77.7994 63.7088 82.5309C63.7088 89.3172 63.6505 94.7865 63.6505 96.4555C63.6505 97.8061 64.5691 99.3851 67.1554 98.8905C87.4077 92.1737 102 73.1558 102 50.7461C102 22.7245 79.1669 0 51.001 0L50.9973 0.0169689L50.9971 0.0171275Z" fill="white"/>
</svg>
