<svg width="71" height="71" viewBox="0 0 71 71" fill="none" xmlns="http://www.w3.org/2000/svg">
<path d="M69.6059 0.65335C69.2864 0.338303 68.827 0.159973 68.3477 0.159973H1.75891C1.27957 0.159973 0.820195 0.338303 0.500633 0.65335C0.174412 0.968397 0.0146315 1.39044 0.0612347 1.81843L6.05968 61.8142C6.1196 62.4443 6.61226 62.9674 7.29133 63.1457L34.5806 70.1005C34.7271 70.1421 34.8868 70.16 35.0466 70.16C35.2064 70.16 35.3595 70.1421 35.5127 70.1005L62.8219 63.1457C63.501 62.9674 63.987 62.4443 64.0535 61.8142L70.0453 1.81843C70.0919 1.39044 69.9322 0.968397 69.6059 0.65335ZM55.2456 21.3395H23.1829L23.9485 29.0849H54.4733L52.1831 51.9764L35.04 56.601L34.8735 56.5535L17.9301 51.9704L17.0047 42.6438H25.3066L25.6661 46.2639L35.1398 48.0353L44.4404 46.2639L45.4324 36.4677H16.3855L14.1286 13.9388H55.9846L55.2456 21.3395Z" fill="white"/>
</svg>
