<svg width="41" height="87" viewBox="0 0 41 87" fill="none" xmlns="http://www.w3.org/2000/svg">
<path fill-rule="evenodd" clip-rule="evenodd" d="M23.1106 76.6107L22.8024 76.8462C22.5308 81.0444 21.8467 87 21.8467 87H19.1177C19.1177 87 18.4361 81.0107 18.1619 76.8462L17.8564 76.6443C17.8564 76.6443 -18.7583 49.6695 12.8738 9.69629C16.5585 5.36612 19.7314 0.96607 20.3816 0.0524124C20.4495 -0.0174708 20.5514 -0.0174708 20.6193 0.0524124C21.2669 0.96607 24.4398 5.36612 28.1271 9.69629C59.7592 49.6695 23.1445 76.6443 23.1106 76.6107ZM22.5648 73.937V73.8697L20.5853 30.3429C20.5853 30.2083 20.3816 30.2083 20.3816 30.3429L18.4022 73.8697V73.937C18.8461 74.6462 20.4835 76.0361 20.4835 76.0361C20.4835 76.0361 22.1208 74.6462 22.5648 73.937Z" fill="white"/>
</svg>
