<svg width="70" height="76" viewBox="0 0 70 76" fill="none" xmlns="http://www.w3.org/2000/svg">
<path d="M34.9829 0C33.9183 0 32.854 0.261707 31.9352 0.787861L3.0306 17.5099C1.16393 18.5915 0 20.6392 0 22.8023V53.1406C0 55.3329 1.16393 57.3515 3.0306 58.433L10.6185 62.8176C14.2935 64.6299 15.6039 64.6274 17.2664 64.6274C22.7206 64.6274 25.8398 61.3248 25.8398 55.5956V24.2924C25.8398 23.8247 25.4634 23.4417 24.9967 23.4417H21.3509C20.8551 23.4417 20.5021 23.8247 20.5021 24.2924V55.567C20.5021 58.1393 17.8511 60.6525 13.5636 58.5186L5.62826 53.9285C5.33659 53.7823 5.16113 53.4622 5.16113 53.1406V22.8308C5.16113 22.4801 5.33659 22.1841 5.62826 22.0087L34.5329 5.29237C34.7954 5.11698 35.147 5.11698 35.4386 5.29237L64.3433 22.0087C64.6349 22.1841 64.8104 22.4807 64.8104 22.8023V53.1406C64.8104 53.4622 64.6342 53.7823 64.3717 53.9285L35.4386 70.6791C35.1761 70.8252 34.7954 70.8252 34.5329 70.6791L27.0931 66.2659C26.8889 66.1198 26.6023 66.0919 26.3981 66.2088C24.3273 67.3781 23.9481 67.5233 22.0231 68.1956C21.5564 68.3418 20.8268 68.6332 22.2852 69.4516L31.9352 75.1836C32.8686 75.7097 33.9215 76 34.9715 76C36.0507 76 37.0973 75.7097 38.0306 75.1836L66.9694 58.433C68.8361 57.3515 70 55.3329 70 53.1406V22.8308C70 20.6385 68.8361 18.62 66.9694 17.5385L38.0306 0.787861C37.1119 0.261707 36.0475 0 34.9829 0ZM42.7588 23.4017C34.5046 23.4017 29.5768 26.9072 29.5768 32.7533C29.5768 39.0964 34.4723 40.8475 42.4056 41.6367C51.8848 42.5721 52.6139 43.9793 52.6139 45.8501C52.6139 49.0654 50.0224 50.4402 43.9266 50.4402C36.2558 50.4402 34.563 48.5082 34.0088 44.7082C33.9505 44.299 33.6025 44.006 33.1942 44.006H29.4287C28.962 44.006 28.6141 44.3897 28.6141 44.8281C28.6141 49.7097 31.2683 55.5213 43.9266 55.5213C53.0849 55.5213 58.3333 51.9013 58.3333 45.5874C58.3333 39.3321 54.1035 37.6627 45.2368 36.4642C36.2243 35.295 35.319 34.6809 35.319 32.5763C35.319 30.8225 36.1088 28.5171 42.7588 28.5171C48.6796 28.5171 50.8951 29.7992 51.7993 33.8038C51.8868 34.1838 52.2056 34.4775 52.6139 34.4775H56.3794C56.6127 34.4775 56.8139 34.3617 56.9889 34.1863C57.1348 34.0401 57.2232 33.8042 57.194 33.5412C56.6107 26.6427 52.0338 23.4017 42.7588 23.4017Z" fill="white"/>
</svg>
