<svg width="70" height="64" viewBox="0 0 70 64" fill="none" xmlns="http://www.w3.org/2000/svg">
<path d="M22.3991 0C20.617 0 18.9642 0.40459 17.5 1.25943C12.9241 3.9387 11.1824 10.4679 12.1053 18.5969C4.70371 21.8508 0 26.6422 0 32C0 37.3578 4.70371 42.1492 12.1053 45.4031C11.1829 53.5318 12.9241 60.0613 17.5 62.7406C18.9613 63.5954 20.6141 64 22.3991 64C26.1984 64 30.5896 62.0662 35 58.7485C39.4108 62.0662 43.8073 64 47.6066 64C49.3887 64 51.0415 63.5954 52.5057 62.7406C57.0815 60.0613 58.8233 53.5321 57.9004 45.4031C65.2992 42.1492 70 37.3566 70 32C70 26.6422 65.2963 21.8508 57.8947 18.5969C58.8171 10.4682 57.0759 3.9387 52.5 1.25943C51.0387 0.401632 49.3859 0 47.6009 0C43.8016 0 39.4104 1.93381 35 5.25149C30.5893 1.93381 26.1971 0 22.3991 0ZM22.3991 5.17639C24.6789 5.17639 27.6936 6.40573 30.9668 8.68316C29.0423 10.525 27.1575 12.6194 25.3442 14.9514C22.4031 15.3791 19.6302 16.0026 17.0614 16.7828C17.0476 16.6021 17.0149 16.4126 17.0044 16.234C16.6923 10.9689 17.8325 7.04404 20.0521 5.74255C20.7083 5.35802 21.4745 5.17639 22.3991 5.17639ZM47.6009 5.17639C48.5226 5.17639 49.2917 5.35802 49.9479 5.74255C52.1675 7.04109 53.3077 10.9689 52.9956 16.234C52.985 16.4126 52.9525 16.6021 52.9386 16.7828C50.3682 16.0021 47.5932 15.3791 44.6501 14.9514C42.8368 12.6197 40.9576 10.5248 39.0332 8.68316C42.3061 6.40611 45.3223 5.17639 47.6009 5.17639ZM35 11.9704C35.7906 12.7002 36.5758 13.4716 37.3698 14.3159C36.5829 14.2891 35.8003 14.2524 35 14.2524C34.2017 14.2524 33.4209 14.2893 32.6359 14.3159C33.4292 13.4725 34.2101 12.6995 35 11.9704ZM35 19.4288C37.417 19.4288 39.7079 19.5658 41.8815 19.8043C43.2071 21.6315 44.5135 23.5634 45.7381 25.7144C46.9119 27.7762 47.9498 29.8865 48.8656 32C47.9497 34.1147 46.9126 36.2284 45.7381 38.2914C44.5173 40.4362 43.2141 42.3556 41.8929 44.1784C39.6425 44.4281 37.334 44.5712 35 44.5712C32.583 44.5712 30.2921 44.4342 28.1185 44.1957C26.7929 42.3685 25.4865 40.4424 24.2619 38.2914C23.0874 36.2284 22.0506 34.1147 21.1344 32C22.0499 29.8865 23.0881 27.7762 24.2619 25.7144C25.4832 23.5696 26.7855 21.6444 28.1071 19.8216C30.3575 19.5719 32.666 19.4288 35 19.4288ZM48.8428 21.0291C50 21.3124 51.1124 21.6183 52.1582 21.9592C51.9213 23.0449 51.6315 24.1514 51.3037 25.2695C50.9284 24.5553 50.5644 23.8388 50.1587 23.1262C49.7412 22.3932 49.2778 21.7347 48.8428 21.0291ZM21.1515 21.0348C20.718 21.7383 20.2574 22.3956 19.8413 23.1262C19.4357 23.8389 19.0715 24.5552 18.6963 25.2695C18.3677 24.1491 18.0733 23.0413 17.8361 21.9534C18.9011 21.6122 20.0108 21.31 21.1515 21.0348ZM13.0339 23.8541C13.6484 26.4856 14.5009 29.2134 15.5973 31.9942C14.5032 34.7685 13.6543 37.4913 13.0396 40.117C7.96026 37.6295 5.10417 34.5331 5.10417 32C5.10417 29.4 7.88047 26.4369 12.5326 24.0794C12.6913 23.9989 12.8716 23.9328 13.0339 23.8541ZM56.9604 23.883C62.0397 26.3705 64.8958 29.4669 64.8958 32C64.8958 34.6 62.1195 37.5631 57.4674 39.9206C57.3087 40.0011 57.1284 40.0672 56.9661 40.1459C56.3513 37.5129 55.5057 34.7825 54.4084 32C55.5012 29.2282 56.3462 26.5065 56.9604 23.883ZM35 26.0841C31.7771 26.0841 29.1667 28.7315 29.1667 32C29.1667 35.2685 31.7771 37.9159 35 37.9159C38.2229 37.9159 40.8333 35.2685 40.8333 32C40.8333 28.7315 38.2229 26.0841 35 26.0841ZM18.6963 38.7305C19.0717 39.445 19.4411 40.161 19.847 40.8738C20.264 41.6063 20.7227 42.2658 21.1572 42.9709C20 42.6876 18.8876 42.3817 17.8418 42.0408C18.0789 40.9544 18.3682 39.8493 18.6963 38.7305ZM51.3037 38.7362C51.6319 39.8556 51.9269 40.9597 52.1639 42.0466C51.0989 42.3878 49.9892 42.69 48.8485 42.9652C49.282 42.2617 49.7426 41.6044 50.1587 40.8738C50.5635 40.1626 50.9292 39.4491 51.3037 38.7362ZM17.0614 47.2172C19.6318 47.9979 22.4068 48.6208 25.3499 49.0486C27.1638 51.3814 29.0415 53.4803 30.9668 55.3226C27.6939 57.5994 24.6787 58.8294 22.3991 58.8294C21.4774 58.8294 20.7083 58.642 20.0521 58.2574C17.8325 56.9589 16.6923 53.0369 17.0044 47.7718C17.0151 47.5913 17.0473 47.3998 17.0614 47.2172ZM52.9386 47.2172C52.9526 47.3998 52.985 47.5913 52.9956 47.7718C53.3077 53.0369 52.1675 56.956 49.9479 58.2574C49.2917 58.642 48.5255 58.8294 47.6009 58.8294C45.3213 58.8294 42.3061 57.5998 39.0332 55.3226C40.9586 53.4801 42.8416 51.3817 44.6558 49.0486C47.5969 48.6209 50.3698 47.9974 52.9386 47.2172ZM32.6302 49.6841C33.4171 49.7109 34.1997 49.7476 35 49.7476C35.8003 49.7476 36.5829 49.7109 37.3698 49.6841C36.5758 50.5284 35.7906 51.2998 35 52.0296C34.2094 51.2998 33.4242 50.5284 32.6302 49.6841Z" fill="white"/>
</svg>
