<svg width="70" height="70" viewBox="0 0 70 70" fill="none" xmlns="http://www.w3.org/2000/svg">
<path d="M65.5599 0H4.44662C1.99219 0 0 1.99219 0 4.44662V65.5534C0 68.0078 1.99219 70 4.44662 70H65.5534C68.0078 70 70 68.0078 70 65.5599V4.44662C70 1.99219 68.0078 0 65.5599 0ZM38.3333 53.6393C38.3333 60.2995 34.4271 63.3333 28.724 63.3333C23.5677 63.3333 19.8503 59.8763 18.3333 56.6667L23.5742 53.4961C24.5833 55.2865 26.1198 56.6667 28.3333 56.6667C30.4492 56.6667 31.6667 55.8398 31.6667 52.6237V31.6667H38.3333V53.6393ZM52.793 63.3333C46.888 63.3333 43.5352 60.3581 41.6667 56.6667L46.6667 53.3333C48.0273 55.5599 49.5117 57.6888 52.6497 57.6888C55.2865 57.6888 56.6667 56.3737 56.6667 54.5508C56.6667 52.3763 55.2344 51.6016 52.3372 50.332L50.7487 49.6484C46.1589 47.6953 43.1055 45.2474 43.1055 40.0651C43.1055 35.2995 46.7448 31.6667 52.4219 31.6667C56.4648 31.6667 59.3685 33.0729 61.4648 36.7578L56.5169 39.9414C55.4232 37.9818 54.2513 37.2135 52.4219 37.2135C50.5599 37.2135 49.3815 38.3984 49.3815 39.9414C49.3815 41.849 50.5599 42.6172 53.2878 43.8021L54.8763 44.4857C60.2865 46.7969 63.3333 49.1602 63.3333 54.4727C63.3333 60.1953 58.8346 63.3333 52.793 63.3333Z" fill="white"/>
</svg>
