<svg width="76" height="87" viewBox="0 0 76 87" fill="none" xmlns="http://www.w3.org/2000/svg">
<path d="M37 44.5238V67.6667L15 56.0953V31.6667L37 44.5238Z" fill="white"/>
<path d="M39 44.5238V67.6667L61 56.0953V31.6667L39 44.5238Z" fill="white"/>
<path d="M38 41.6667L16 29.0351L38 17.6667L60 29.0351L38 41.6667Z" fill="white"/>
<path d="M36.7333 0V15.2L13.9333 27.8667L1.26667 20.2667L36.7333 0Z" fill="white"/>
<path d="M36.7333 86.1334V70.9334L13.9333 58.2667L1.26667 65.8667L36.7333 86.1334Z" fill="white"/>
<path d="M12.6667 30.4L0 22.8V63.3333L12.6667 55.7333V30.4Z" fill="white"/>
<path d="M39.2667 0V15.2L62.0667 27.8667L74.7333 20.2667L39.2667 0Z" fill="white"/>
<path d="M39.2667 86.1334V70.9334L62.0667 58.2667L74.7333 65.8667L39.2667 86.1334Z" fill="white"/>
<path d="M63.3333 30.4L76 22.8V63.3333L63.3333 55.7333V30.4Z" fill="white"/>
</svg>
